HIERARCHY
ROOT Hips
{
    OFFSET   0.000000   0.000000   0.000000
    CHANNELS 6 Xposition Yposition Zposition Zrotation Xrotation Yrotation
    JOINT Chest
    {
        OFFSET   0.000000   8.007240   0.000000
        CHANNELS 3 Zrotation Xrotation Yrotation
        JOINT Chest2
        {
            OFFSET   0.000000  22.077100   0.000000
            CHANNELS 3 Zrotation Xrotation Yrotation
            JOINT Neck
            {
                OFFSET   0.000000  23.254800   0.000000
                CHANNELS 3 Zrotation Xrotation Yrotation
                JOINT Head
                {
                    OFFSET   0.000000  14.370000   1.956600
                    CHANNELS 3 Zrotation Xrotation Yrotation
                    End Site
                    {
                        OFFSET   0.000000  19.566000   0.000000
                    }
                }
            }
            JOINT LeftCollar
            {
                OFFSET   3.911900  19.017000  -0.467064
                CHANNELS 3 Zrotation Xrotation Yrotation
                JOINT LeftShoulder
                {
                    OFFSET  10.383700   0.000000   0.000000
                    CHANNELS 3 Zrotation Xrotation Yrotation
                    JOINT LeftElbow
                    {
                        OFFSET  26.662100   0.001476   0.000517
                        CHANNELS 3 Zrotation Xrotation Yrotation
                        JOINT LeftWrist
                        {
                            OFFSET  28.869000  -0.000025  -0.000106
                            CHANNELS 3 Zrotation Xrotation Yrotation
                            JOINT LeftFinger0
                            {
                                OFFSET   2.044660  -2.323460   3.252850
                                CHANNELS 3 Zrotation Xrotation Yrotation
                                JOINT LeftFinger01
                                {
                                    OFFSET   3.088130   0.000000   0.000000
                                    CHANNELS 3 Zrotation Xrotation Yrotation
                                    JOINT LeftFinger02
                                    {
                                        OFFSET   2.639460   0.000000   0.000000
                                        CHANNELS 3 Zrotation Xrotation Yrotation
                                        End Site
                                        {
                                            OFFSET   2.582190   0.000000   0.000000
                                        }
                                    }
                                }
                            }
                            JOINT LeftFinger1
                            {
                                OFFSET   8.364480   0.000000   3.252850
                                CHANNELS 3 Zrotation Xrotation Yrotation
                                JOINT LeftFinger11
                                {
                                    OFFSET   4.646930   0.000000   0.000000
                                    CHANNELS 3 Zrotation Xrotation Yrotation
                                    JOINT LeftFinger12
                                    {
                                        OFFSET   2.323460   0.000000   0.000000
                                        CHANNELS 3 Zrotation Xrotation Yrotation
                                        End Site
                                        {
                                            OFFSET   2.273050   0.000000   0.000000
                                        }
                                    }
                                }
                            }
                            JOINT LeftFinger2
                            {
                                OFFSET   8.364490   0.000015   1.078090
                                CHANNELS 3 Zrotation Xrotation Yrotation
                                JOINT LeftFinger21
                                {
                                    OFFSET   5.111620   0.000000   0.000000
                                    CHANNELS 3 Zrotation Xrotation Yrotation
                                    JOINT LeftFinger22
                                    {
                                        OFFSET   2.788160   0.000016   0.000000
                                        CHANNELS 3 Zrotation Xrotation Yrotation
                                        End Site
                                        {
                                            OFFSET   2.727660   0.000000   0.000000
                                        }
                                    }
                                }
                            }
                            JOINT LeftFinger3
                            {
                                OFFSET   7.899780   0.000017  -1.078090
                                CHANNELS 3 Zrotation Xrotation Yrotation
                                JOINT LeftFinger31
                                {
                                    OFFSET   4.646930   0.000000   0.000000
                                    CHANNELS 3 Zrotation Xrotation Yrotation
                                    JOINT LeftFinger32
                                    {
                                        OFFSET   2.323470   0.000000   0.000000
                                        CHANNELS 3 Zrotation Xrotation Yrotation
                                        End Site
                                        {
                                            OFFSET   2.273050   0.000000   0.000000
                                        }
                                    }
                                }
                            }
                            JOINT LeftFinger4
                            {
                                OFFSET   7.435090   0.000000  -3.252850
                                CHANNELS 3 Zrotation Xrotation Yrotation
                                JOINT LeftFinger41
                                {
                                    OFFSET   3.717550   0.000000   0.000000
                                    CHANNELS 3 Zrotation Xrotation Yrotation
                                    JOINT LeftFinger42
                                    {
                                        OFFSET   1.858770   0.000000   0.000000
                                        CHANNELS 3 Zrotation Xrotation Yrotation
                                        End Site
                                        {
                                            OFFSET   1.818440   0.000000   0.000000
                                        }
                                    }
                                }
                            }
                        }
                    }
                }
            }
            JOINT RightCollar
            {
                OFFSET  -3.911900  19.017000  -0.467063
                CHANNELS 3 Zrotation Xrotation Yrotation
                JOINT RightShoulder
                {
                    OFFSET -10.383700   0.000019   0.000000
                    CHANNELS 3 Zrotation Xrotation Yrotation
                    JOINT RightElbow
                    {
                        OFFSET -26.662100   0.001175   0.000102
                        CHANNELS 3 Zrotation Xrotation Yrotation
                        JOINT RightWrist
                        {
                            OFFSET -28.869000   0.000016  -0.000079
                            CHANNELS 3 Zrotation Xrotation Yrotation
                            JOINT RightFinger0
                            {
                                OFFSET  -2.044660  -2.323490   3.252850
                                CHANNELS 3 Zrotation Xrotation Yrotation
                                JOINT RightFinger01
                                {
                                    OFFSET  -3.088140   0.000000   0.000000
                                    CHANNELS 3 Zrotation Xrotation Yrotation
                                    JOINT RightFinger02
                                    {
                                        OFFSET  -2.639460   0.000000   0.000000
                                        CHANNELS 3 Zrotation Xrotation Yrotation
                                        End Site
                                        {
                                            OFFSET  -2.582190   0.000000   0.000000
                                        }
                                    }
                                }
                            }
                            JOINT RightFinger1
                            {
                                OFFSET  -8.364480   0.000000   3.252850
                                CHANNELS 3 Zrotation Xrotation Yrotation
                                JOINT RightFinger11
                                {
                                    OFFSET  -4.646930   0.000000   0.000000
                                    CHANNELS 3 Zrotation Xrotation Yrotation
                                    JOINT RightFinger12
                                    {
                                        OFFSET  -2.323470   0.000000   0.000000
                                        CHANNELS 3 Zrotation Xrotation Yrotation
                                        End Site
                                        {
                                            OFFSET  -2.273050   0.000000   0.000000
                                        }
                                    }
                                }
                            }
                            JOINT RightFinger2
                            {
                                OFFSET  -8.364480   0.000000   1.078090
                                CHANNELS 3 Zrotation Xrotation Yrotation
                                JOINT RightFinger21
                                {
                                    OFFSET  -5.111620   0.000000   0.000000
                                    CHANNELS 3 Zrotation Xrotation Yrotation
                                    JOINT RightFinger22
                                    {
                                        OFFSET  -2.788160   0.000000   0.000000
                                        CHANNELS 3 Zrotation Xrotation Yrotation
                                        End Site
                                        {
                                            OFFSET  -2.727660   0.000000   0.000000
                                        }
                                    }
                                }
                            }
                            JOINT RightFinger3
                            {
                                OFFSET  -7.899780   0.000000  -1.078090
                                CHANNELS 3 Zrotation Xrotation Yrotation
                                JOINT RightFinger31
                                {
                                    OFFSET  -4.646930   0.000000   0.000000
                                    CHANNELS 3 Zrotation Xrotation Yrotation
                                    JOINT RightFinger32
                                    {
                                        OFFSET  -2.323470   0.000000   0.000000
                                        CHANNELS 3 Zrotation Xrotation Yrotation
                                        End Site
                                        {
                                            OFFSET  -2.273050   0.000000   0.000000
                                        }
                                    }
                                }
                            }
                            JOINT RightFinger4
                            {
                                OFFSET  -7.435090   0.000000  -3.252850
                                CHANNELS 3 Zrotation Xrotation Yrotation
                                JOINT RightFinger41
                                {
                                    OFFSET  -3.717550   0.000000   0.000000
                                    CHANNELS 3 Zrotation Xrotation Yrotation
                                    JOINT RightFinger42
                                    {
                                        OFFSET  -1.858770   0.000000   0.000000
                                        CHANNELS 3 Zrotation Xrotation Yrotation
                                        End Site
                                        {
                                            OFFSET  -1.818440   0.000000   0.000000
                                        }
                                    }
                                }
                            }
                        }
                    }
                }
            }
        }
    }
    JOINT LeftHip
    {
        OFFSET   9.783040   0.000000   0.000000
        CHANNELS 3 Zrotation Xrotation Yrotation
        JOINT LeftKnee
        {
            OFFSET   0.000032 -41.789100  -0.002222
            CHANNELS 3 Zrotation Xrotation Yrotation
            JOINT LeftAnkle
            {
                OFFSET   0.000087 -41.133200  -0.000135
                CHANNELS 3 Zrotation Xrotation Yrotation
                JOINT LeftToe
                {
                    OFFSET   0.000000  -6.358960  14.674500
                    CHANNELS 3 Zrotation Xrotation Yrotation
                    End Site
                    {
                        OFFSET   0.000000   0.000000   3.913200
                    }
                }
            }
        }
    }
    JOINT RightHip
    {
        OFFSET  -9.783040   0.000000   0.000000
        CHANNELS 3 Zrotation Xrotation Yrotation
        JOINT RightKnee
        {
            OFFSET   0.000047 -41.789100  -0.000896
            CHANNELS 3 Zrotation Xrotation Yrotation
            JOINT RightAnkle
            {
                OFFSET  -0.000117 -41.133300  -0.000248
                CHANNELS 3 Zrotation Xrotation Yrotation
                JOINT RightToe
                {
                    OFFSET   0.000000  -6.358970  14.674500
                    CHANNELS 3 Zrotation Xrotation Yrotation
                    End Site
                    {
                        OFFSET   0.000000   0.000000   3.913200
                    }
                }
            }
        }
    }
}
MOTION
Frames: 4
Frame Time:   0.016667
  0.209683  89.519200  -0.086714  -2.048260   1.003730   0.361528   0.750781  -0.442251  -0.637278   1.496650  -0.892784  -1.268750   0.843214   0.508276  -0.003798   1.387900   1.041840   6.199840  -3.517110   3.610000   1.121690 -72.751000  12.390400  -2.606610  -2.031040  -5.661950  -5.941220   2.677810 -10.214800   8.123360  43.232700  30.728000 -63.011300 -22.610800  -0.001221  -0.000447  -6.305380  -0.004489  -0.000570 -25.833800   3.974690  -8.147750 -21.368400  -0.006367   0.000612 -14.957900   0.007003   0.000544 -26.442000   2.493390  -4.999370 -26.550900  -0.004285  -0.001611 -17.682900   0.006523  -0.000744 -25.802100   0.184107  -0.380808 -25.802800   0.002090  -0.007327 -17.184600   0.002988  -0.004370 -26.716100   0.190160  -0.377821 -40.075200   0.007951  -0.010385 -26.690000   0.001108  -0.004047   4.268340   0.923112   6.111260  75.081700   5.158890  -0.112492   1.054690  -2.026270   4.727240  -8.215660 -10.892200   3.269300 -41.235000  36.437100  68.590800  30.931700   0.003450  -0.001984  10.465800  -0.001474  -0.002251  25.556000   5.510700  11.360100  21.358100  -0.006843   0.007419  14.958900   0.001388   0.005259  25.787000   4.707110   9.638870  26.184100  -0.006388   0.008149  17.438600  -0.001524   0.006489  27.179100   3.107620   6.026920  28.461600  -0.006559   0.013392  18.955500  -0.006092   0.000346  30.375300   1.171120   2.014490  45.593400  -0.004474   0.008271  30.365200   0.002900   0.004130   2.038170   2.338730   1.993680   1.340640   0.165726   8.289760  -0.284761  -2.737050   2.950870   0.000000   0.000000  -0.000000   1.476040  -0.684761  -2.410180   1.163280   2.913640  -7.388220  -1.478470  -2.984620  -5.302810  -0.000000   0.000000  -0.000000
  0.215891  89.519200  -0.092551  -2.051660   1.000840   0.366893   0.750668  -0.442404  -0.635277   1.496440  -0.893052  -1.264740   0.843016   0.508252  -0.003787   1.387730   1.038440   6.188840  -3.516660   3.602490   1.119350 -72.727500  12.397900  -2.599780  -2.028220  -5.646990  -5.932000   2.671340 -10.217000   8.143290  43.234200  30.718000 -62.993200 -22.596500  -0.001218  -0.000452  -6.298230  -0.004488  -0.000564 -25.818600   3.982260  -8.168480 -21.357000  -0.006368   0.000612 -14.949900   0.007002   0.000545 -26.424200   2.505160  -5.026750 -26.534100  -0.004287  -0.001610 -17.671800   0.006522  -0.000744 -25.793600   0.194786  -0.403062 -25.794300   0.002092  -0.007327 -17.179000   0.002986  -0.004369 -26.709400   0.201228  -0.399883 -40.065200   0.007950  -0.010386 -26.683300   0.001108  -0.004047   4.272870   0.914122   6.118190  75.072000   5.186460  -0.119058   1.061210  -2.003930   4.721150  -8.206370 -10.861400   3.251120 -41.220200  36.414200  68.576500  30.931700   0.003447  -0.001985  10.465800  -0.001471  -0.002251  25.563000   5.510690  11.358600  21.363900  -0.006840   0.007417  14.958900   0.001394   0.005256  25.800100   4.707130   9.637310  26.197300  -0.006378   0.008145  17.447400  -0.001517   0.006489  27.186600   3.104260   6.018510  28.495700  -0.006555   0.013394  18.978200  -0.006093   0.000344  30.404100   1.171130   2.003540  45.636600  -0.004472   0.008267  30.394000   0.002900   0.004128   2.039480   2.340020   1.993680   1.341640   0.159138   8.289990  -0.285351  -2.730490   2.938610   0.000000   0.000000  -0.000000   1.475830  -0.682964  -2.408740   1.163780   2.913830  -7.397240  -1.478360  -2.985150  -5.302810  -0.000000   0.000000   0.000000
  0.225635  89.519100  -0.102075  -2.058070   0.993862   0.376943   0.750567  -0.442557  -0.631862   1.496270  -0.893320  -1.257920   0.842817   0.508085  -0.003749   1.387710   1.030350   6.172420  -3.516100   3.589630   1.117000 -72.686600  12.412500  -2.589490  -2.024290  -5.626910  -5.918430   2.663190 -10.223700   8.174070  43.234900  30.709300 -62.973600 -22.582200  -0.001216  -0.000458  -6.291080  -0.004484  -0.000555 -25.803400   3.989830  -8.189210 -21.345600  -0.006371   0.000614 -14.941900   0.007001   0.000547 -26.406400   2.516930  -5.054140 -26.517400  -0.004290  -0.001606 -17.660600   0.006520  -0.000742 -25.781700   0.207499  -0.429602 -25.782400   0.002097  -0.007327 -17.171100   0.002980  -0.004367 -26.698100   0.214339  -0.426231 -40.048300   0.007946  -0.010389 -26.672100   0.001106  -0.004046   4.280920   0.899310   6.130810  75.057800   5.229050  -0.135087   1.073220  -1.970680   4.712800  -8.183730 -10.830800   3.224280 -41.196600  36.385800  68.551800  30.931700   0.003445  -0.001987  10.465800  -0.001468  -0.002250  25.570800   5.510600  11.348200  21.369800  -0.006836   0.007415  14.958900   0.001402   0.005248  25.813800   4.707250   9.628850  26.210500  -0.006362   0.008141  17.456200  -0.001503   0.006489  27.195600   3.094120   5.996770  28.529700  -0.006547   0.013399  19.000900  -0.006096   0.000337  30.432900   1.171140   1.992590  45.679900  -0.004468   0.008257  30.422800   0.002899   0.004121   2.042940   2.343090   1.993690   1.343070   0.151636   8.290220  -0.286461  -2.720980   2.918530  -0.000000   0.000000   0.000000   1.475610  -0.681167  -2.405700   1.164830   2.915470  -7.411680  -1.478180  -2.985690  -5.302800   0.000000   0.000000   0.000000
  0.232137  89.519100  -0.109092  -2.065100   0.983591   0.386840   0.750865  -0.438864  -0.628974   1.496940  -0.885916  -1.252210   0.842829   0.503400  -0.003648   1.388150   1.018370   6.163330  -3.516370   3.577720   1.123060 -72.649800  12.433000  -2.584220  -2.022900  -5.623540  -5.910230   2.663630 -10.236000   8.191120  43.237300  30.714200 -62.972800 -22.582800  -0.001225  -0.000450  -6.291370  -0.004476  -0.000552 -25.807300   3.988670  -8.185450 -21.348700  -0.006375   0.000616 -14.944100   0.007001   0.000548 -26.407200   2.516020  -5.052160 -26.518100  -0.004294  -0.001602 -17.661100   0.006517  -0.000739 -25.776400   0.209872  -0.434604 -25.777200   0.002105  -0.007327 -17.167600   0.002969  -0.004364 -26.686500   0.216721  -0.431230 -40.030900   0.007939  -0.010391 -26.660600   0.001104  -0.004045   4.288080   0.887639   6.144640  75.050200   5.256680  -0.158310   1.085010  -1.953480   4.710350  -8.148430 -10.843700   3.212300 -41.180600  36.378200  68.531300  30.946600   0.003459  -0.002005  10.473300  -0.001474  -0.002257  25.565200   5.495860  11.317300  21.362600  -0.006837   0.007412  14.953900   0.001405   0.005233  25.808700   4.698410   9.609850  26.203700  -0.006350   0.008141  17.451700  -0.001488   0.006484  27.193400   3.075870   5.962280  28.509200  -0.006536   0.013408  18.987200  -0.006097   0.000322  30.422500   1.173100   1.996650  45.664400  -0.004461   0.008240  30.412500   0.002896   0.004113   2.048990   2.348840   1.993770   1.344170   0.150569   8.290210  -0.287701  -2.715730   2.903640   0.000000   0.000000   0.000000   1.475450  -0.685712  -2.400740   1.167200   2.926630  -7.423240  -1.478070  -2.984500  -5.305400  -0.000000   0.000000   0.000000
